<mxfile host="65bd71144e">
    <diagram id="7r4lbxDzDl4sbi0siYc9" name="Page-1">
        <mxGraphModel dx="1055" dy="643" grid="0" gridSize="10" guides="1" tooltips="1" connect="1" arrows="1" fold="1" page="1" pageScale="1" pageWidth="827" pageHeight="1169" math="0" shadow="0">
            <root>
                <mxCell id="0"/>
                <mxCell id="1" parent="0"/>
                <mxCell id="4" value="Accueil connexion" style="rounded=0;whiteSpace=wrap;html=1;" parent="1" vertex="1">
                    <mxGeometry x="366" y="155" width="76" height="40" as="geometry"/>
                </mxCell>
                <mxCell id="11" style="edgeStyle=none;html=1;entryX=0.5;entryY=0;entryDx=0;entryDy=0;strokeColor=#00FF00;" parent="1" source="5" target="6" edge="1">
                    <mxGeometry relative="1" as="geometry"/>
                </mxCell>
                <mxCell id="5" value="Vue administrateur" style="rounded=0;whiteSpace=wrap;html=1;strokeColor=#00FF00;" parent="1" vertex="1">
                    <mxGeometry x="76" y="227" width="90" height="40" as="geometry"/>
                </mxCell>
                <mxCell id="76" style="edgeStyle=none;html=1;exitX=0.5;exitY=1;exitDx=0;exitDy=0;strokeColor=#00FF00;" edge="1" parent="1" source="6" target="8">
                    <mxGeometry relative="1" as="geometry"/>
                </mxCell>
                <mxCell id="6" value="Vue liste des employés - administrateur" style="rounded=0;whiteSpace=wrap;html=1;strokeColor=#00FF00;" parent="1" vertex="1">
                    <mxGeometry x="61" y="307" width="120" height="60" as="geometry"/>
                </mxCell>
                <mxCell id="7" value="Vue édition d&#39;un employé&amp;nbsp;&lt;span style=&quot;background-color: transparent;&quot;&gt;- administrateur&lt;/span&gt;" style="rounded=0;whiteSpace=wrap;html=1;strokeColor=#00FF00;" parent="1" vertex="1">
                    <mxGeometry x="61" y="507" width="120" height="60" as="geometry"/>
                </mxCell>
                <mxCell id="8" value="Vue employé - administrateur" style="rounded=0;whiteSpace=wrap;html=1;strokeColor=#00FF00;" parent="1" vertex="1">
                    <mxGeometry x="61" y="407" width="120" height="60" as="geometry"/>
                </mxCell>
                <mxCell id="72" style="edgeStyle=none;html=1;exitX=0.5;exitY=1;exitDx=0;exitDy=0;entryX=0.5;entryY=0;entryDx=0;entryDy=0;strokeColor=#FF8000;" edge="1" parent="1" source="9" target="23">
                    <mxGeometry relative="1" as="geometry"/>
                </mxCell>
                <mxCell id="74" style="edgeStyle=none;html=1;exitX=1;exitY=0.25;exitDx=0;exitDy=0;entryX=0;entryY=0.25;entryDx=0;entryDy=0;strokeColor=#FF8000;" edge="1" parent="1" source="9" target="21">
                    <mxGeometry relative="1" as="geometry"/>
                </mxCell>
                <mxCell id="9" value="Vue liste des comptes clients - employé ou administrateur" style="rounded=0;whiteSpace=wrap;html=1;strokeColor=#FF8000;" parent="1" vertex="1">
                    <mxGeometry x="277" y="307" width="120" height="60" as="geometry"/>
                </mxCell>
                <mxCell id="16" value="Vue nouvel employé CLO - administrateur" style="rounded=0;whiteSpace=wrap;html=1;strokeColor=#00FF00;" parent="1" vertex="1">
                    <mxGeometry x="61" y="607" width="120" height="60" as="geometry"/>
                </mxCell>
                <mxCell id="17" value="" style="edgeStyle=elbowEdgeStyle;elbow=horizontal;endArrow=classic;html=1;curved=0;rounded=0;endSize=8;startSize=8;exitX=0;exitY=0.5;exitDx=0;exitDy=0;strokeColor=#00FF00;" parent="1" source="6" edge="1">
                    <mxGeometry width="50" height="50" relative="1" as="geometry">
                        <mxPoint x="-10" y="407" as="sourcePoint"/>
                        <mxPoint x="61" y="537" as="targetPoint"/>
                        <Array as="points">
                            <mxPoint x="40" y="440"/>
                        </Array>
                    </mxGeometry>
                </mxCell>
                <mxCell id="18" value="" style="edgeStyle=elbowEdgeStyle;elbow=horizontal;endArrow=classic;html=1;curved=0;rounded=0;endSize=8;startSize=8;entryX=1;entryY=0.5;entryDx=0;entryDy=0;exitX=1;exitY=0.5;exitDx=0;exitDy=0;strokeColor=#00FF00;" parent="1" source="6" target="16" edge="1">
                    <mxGeometry width="50" height="50" relative="1" as="geometry">
                        <mxPoint x="270" y="647" as="sourcePoint"/>
                        <mxPoint x="320" y="597" as="targetPoint"/>
                        <Array as="points">
                            <mxPoint x="200" y="487"/>
                        </Array>
                    </mxGeometry>
                </mxCell>
                <mxCell id="20" value="" style="edgeStyle=elbowEdgeStyle;elbow=vertical;endArrow=classic;html=1;curved=0;rounded=0;endSize=8;startSize=8;exitX=0.5;exitY=1;exitDx=0;exitDy=0;strokeColor=#FF8000;entryX=0.75;entryY=0;entryDx=0;entryDy=0;" parent="1" source="4" target="9" edge="1">
                    <mxGeometry width="50" height="50" relative="1" as="geometry">
                        <mxPoint x="210" y="272" as="sourcePoint"/>
                        <mxPoint x="360" y="300" as="targetPoint"/>
                        <Array as="points">
                            <mxPoint x="380" y="250"/>
                        </Array>
                    </mxGeometry>
                </mxCell>
                <mxCell id="68" style="edgeStyle=none;html=1;exitX=0.5;exitY=1;exitDx=0;exitDy=0;entryX=0.5;entryY=0;entryDx=0;entryDy=0;strokeColor=#FF8000;" edge="1" parent="1" source="21" target="32">
                    <mxGeometry relative="1" as="geometry"/>
                </mxCell>
                <mxCell id="21" value="Vue liste contrats - employé ou administrateur" style="rounded=0;whiteSpace=wrap;html=1;strokeColor=#FF8000;" parent="1" vertex="1">
                    <mxGeometry x="491" y="307" width="120" height="60" as="geometry"/>
                </mxCell>
                <mxCell id="23" value="Vue édition d&#39;un compte client - employé ou administrateur" style="rounded=0;whiteSpace=wrap;html=1;strokeColor=#FF8000;" parent="1" vertex="1">
                    <mxGeometry x="277" y="408" width="120" height="60" as="geometry"/>
                </mxCell>
                <mxCell id="25" value="Vue ajout d&#39;un compte client - employé ou administrateur" style="rounded=0;whiteSpace=wrap;html=1;strokeColor=#FF8000;" parent="1" vertex="1">
                    <mxGeometry x="277" y="508" width="120" height="60" as="geometry"/>
                </mxCell>
                <mxCell id="26" value="" style="edgeStyle=elbowEdgeStyle;elbow=horizontal;endArrow=classic;html=1;curved=0;rounded=0;endSize=8;startSize=8;exitX=0;exitY=0.5;exitDx=0;exitDy=0;entryX=0;entryY=0.5;entryDx=0;entryDy=0;strokeColor=#FF8000;" parent="1" source="9" edge="1" target="25">
                    <mxGeometry width="50" height="50" relative="1" as="geometry">
                        <mxPoint x="227" y="687" as="sourcePoint"/>
                        <mxPoint x="277" y="637" as="targetPoint"/>
                        <Array as="points">
                            <mxPoint x="256" y="440"/>
                        </Array>
                    </mxGeometry>
                </mxCell>
                <mxCell id="39" style="edgeStyle=none;html=1;entryX=0.5;entryY=0;entryDx=0;entryDy=0;strokeColor=#3333FF;" parent="1" source="28" target="38" edge="1">
                    <mxGeometry relative="1" as="geometry"/>
                </mxCell>
                <mxCell id="28" value="Vue liste contrats - client" style="rounded=0;whiteSpace=wrap;html=1;strokeColor=#3333FF;" parent="1" vertex="1">
                    <mxGeometry x="671" y="307" width="120" height="60" as="geometry"/>
                </mxCell>
                <mxCell id="30" value="" style="edgeStyle=elbowEdgeStyle;elbow=horizontal;endArrow=classic;html=1;curved=0;rounded=0;endSize=8;startSize=8;entryX=0.5;entryY=0;entryDx=0;entryDy=0;exitX=0;exitY=0.5;exitDx=0;exitDy=0;strokeColor=#00FF00;" parent="1" source="4" target="5" edge="1">
                    <mxGeometry width="50" height="50" relative="1" as="geometry">
                        <mxPoint x="76" y="147" as="sourcePoint"/>
                        <mxPoint x="126" y="97" as="targetPoint"/>
                        <Array as="points">
                            <mxPoint x="121" y="167"/>
                        </Array>
                    </mxGeometry>
                </mxCell>
                <mxCell id="31" value="&lt;span style=&quot;color: rgb(0, 0, 0);&quot;&gt;Vue édition d&#39;un contrat - employé ou administrateur&lt;/span&gt;" style="rounded=0;whiteSpace=wrap;html=1;strokeColor=#FF8000;" parent="1" vertex="1">
                    <mxGeometry x="492" y="507" width="120" height="60" as="geometry"/>
                </mxCell>
                <mxCell id="32" value="&lt;span style=&quot;color: rgb(0, 0, 0);&quot;&gt;Vue contrat - employé ou administrateur&lt;/span&gt;" style="rounded=0;whiteSpace=wrap;html=1;strokeColor=#FF8000;" parent="1" vertex="1">
                    <mxGeometry x="492" y="407" width="120" height="60" as="geometry"/>
                </mxCell>
                <mxCell id="36" value="&lt;span style=&quot;color: rgb(0, 0, 0);&quot;&gt;Vue ajout d&#39;un contrat - employé ou administrateur&lt;/span&gt;" style="rounded=0;whiteSpace=wrap;html=1;strokeColor=#FF8000;" parent="1" vertex="1">
                    <mxGeometry x="492" y="607" width="120" height="60" as="geometry"/>
                </mxCell>
                <mxCell id="50" style="edgeStyle=none;html=1;exitX=0.5;exitY=1;exitDx=0;exitDy=0;entryX=0.5;entryY=0;entryDx=0;entryDy=0;strokeColor=#3333FF;" edge="1" parent="1" source="38" target="49">
                    <mxGeometry relative="1" as="geometry"/>
                </mxCell>
                <mxCell id="38" value="Vue contrat - client" style="rounded=0;whiteSpace=wrap;html=1;strokeColor=#3333FF;" parent="1" vertex="1">
                    <mxGeometry x="671" y="407" width="120" height="60" as="geometry"/>
                </mxCell>
                <mxCell id="45" value="" style="edgeStyle=none;html=1;strokeColor=#FF8000;" parent="1" source="40" target="44" edge="1">
                    <mxGeometry relative="1" as="geometry"/>
                </mxCell>
                <mxCell id="40" value="Vue fiche avancement chantier - employé ou administrateur" style="rounded=0;whiteSpace=wrap;html=1;strokeColor=#FF8000;" parent="1" vertex="1">
                    <mxGeometry x="491" y="736" width="120" height="60" as="geometry"/>
                </mxCell>
                <mxCell id="43" value="" style="edgeStyle=elbowEdgeStyle;elbow=horizontal;endArrow=classic;html=1;curved=0;rounded=0;endSize=8;startSize=8;exitX=1;exitY=0.5;exitDx=0;exitDy=0;entryX=1;entryY=0.5;entryDx=0;entryDy=0;strokeColor=#FF8000;" parent="1" source="32" target="40" edge="1">
                    <mxGeometry width="50" height="50" relative="1" as="geometry">
                        <mxPoint x="670" y="777" as="sourcePoint"/>
                        <mxPoint x="620" y="737" as="targetPoint"/>
                        <Array as="points">
                            <mxPoint x="630" y="600"/>
                        </Array>
                    </mxGeometry>
                </mxCell>
                <mxCell id="44" value="Vue ajout d&#39;une publication - employé ou administrateur" style="rounded=0;whiteSpace=wrap;html=1;strokeColor=#FF8000;" parent="1" vertex="1">
                    <mxGeometry x="491" y="836" width="120" height="60" as="geometry"/>
                </mxCell>
                <mxCell id="46" value="Vue édition d&#39;une publication - employé ou administrateur" style="rounded=0;whiteSpace=wrap;html=1;strokeColor=#FF8000;" parent="1" vertex="1">
                    <mxGeometry x="492" y="936" width="120" height="60" as="geometry"/>
                </mxCell>
                <mxCell id="48" value="" style="edgeStyle=elbowEdgeStyle;elbow=horizontal;endArrow=classic;html=1;curved=0;rounded=0;endSize=8;startSize=8;exitX=0;exitY=0.5;exitDx=0;exitDy=0;entryX=0;entryY=0.5;entryDx=0;entryDy=0;strokeColor=#FF8000;" parent="1" source="40" target="46" edge="1">
                    <mxGeometry width="50" height="50" relative="1" as="geometry">
                        <mxPoint x="419" y="1016" as="sourcePoint"/>
                        <mxPoint x="450" y="926" as="targetPoint"/>
                        <Array as="points">
                            <mxPoint x="470" y="870"/>
                        </Array>
                    </mxGeometry>
                </mxCell>
                <mxCell id="52" style="edgeStyle=none;html=1;exitX=0.5;exitY=1;exitDx=0;exitDy=0;entryX=0.5;entryY=0;entryDx=0;entryDy=0;strokeColor=#3333FF;" edge="1" parent="1" source="49" target="51">
                    <mxGeometry relative="1" as="geometry"/>
                </mxCell>
                <mxCell id="49" value="Vue fiche avancement chantier - client" style="rounded=0;whiteSpace=wrap;html=1;strokeColor=#3333FF;" vertex="1" parent="1">
                    <mxGeometry x="671" y="507" width="120" height="60" as="geometry"/>
                </mxCell>
                <mxCell id="51" value="Vue ajout d&#39;un&amp;nbsp; commentaire" style="rounded=0;whiteSpace=wrap;html=1;" vertex="1" parent="1">
                    <mxGeometry x="671" y="607" width="120" height="60" as="geometry"/>
                </mxCell>
                <mxCell id="54" value="" style="edgeStyle=elbowEdgeStyle;elbow=vertical;endArrow=classic;html=1;curved=0;rounded=0;endSize=8;startSize=8;entryX=0.5;entryY=1;entryDx=0;entryDy=0;exitX=0.5;exitY=0;exitDx=0;exitDy=0;strokeColor=#FF8000;" edge="1" parent="1" source="40" target="51">
                    <mxGeometry width="50" height="50" relative="1" as="geometry">
                        <mxPoint x="660" y="736" as="sourcePoint"/>
                        <mxPoint x="710" y="686" as="targetPoint"/>
                    </mxGeometry>
                </mxCell>
                <mxCell id="61" value="&lt;span style=&quot;color: rgb(0, 0, 0); text-wrap-mode: wrap;&quot;&gt;Administrateur&lt;/span&gt;" style="text;html=1;align=center;verticalAlign=middle;resizable=0;points=[];autosize=1;strokeColor=none;fillColor=none;" vertex="1" parent="1">
                    <mxGeometry x="229" y="138" width="100" height="30" as="geometry"/>
                </mxCell>
                <mxCell id="62" value="&lt;span style=&quot;color: rgb(0, 0, 0); text-wrap-mode: wrap;&quot;&gt;Client&lt;/span&gt;" style="text;html=1;align=center;verticalAlign=middle;resizable=0;points=[];autosize=1;strokeColor=none;fillColor=none;" vertex="1" parent="1">
                    <mxGeometry x="531" y="138" width="50" height="30" as="geometry"/>
                </mxCell>
                <mxCell id="64" value="" style="rounded=0;whiteSpace=wrap;html=1;strokeColor=#3333FF;fillColor=#3333FF;" vertex="1" parent="1">
                    <mxGeometry x="500" y="145.5" width="30" height="15" as="geometry"/>
                </mxCell>
                <mxCell id="65" value="" style="rounded=0;whiteSpace=wrap;html=1;strokeColor=#00FF00;fillColor=#00FF00;" vertex="1" parent="1">
                    <mxGeometry x="200" y="145.5" width="30" height="15" as="geometry"/>
                </mxCell>
                <mxCell id="66" value="" style="rounded=0;whiteSpace=wrap;html=1;strokeColor=#FF8000;fillColor=#FF8000;" vertex="1" parent="1">
                    <mxGeometry x="415" y="212.5" width="30" height="15" as="geometry"/>
                </mxCell>
                <mxCell id="67" value="Employé ou administrateur" style="text;html=1;align=center;verticalAlign=middle;resizable=0;points=[];autosize=1;strokeColor=none;fillColor=none;" vertex="1" parent="1">
                    <mxGeometry x="448" y="207" width="161" height="26" as="geometry"/>
                </mxCell>
                <mxCell id="69" value="" style="edgeStyle=elbowEdgeStyle;elbow=horizontal;endArrow=classic;html=1;curved=0;rounded=0;endSize=8;startSize=8;entryX=0;entryY=0.5;entryDx=0;entryDy=0;exitX=0;exitY=0.75;exitDx=0;exitDy=0;strokeColor=#FF8000;" edge="1" parent="1" source="21" target="31">
                    <mxGeometry width="50" height="50" relative="1" as="geometry">
                        <mxPoint x="470" y="350" as="sourcePoint"/>
                        <mxPoint x="450" y="540" as="targetPoint"/>
                        <Array as="points">
                            <mxPoint x="470" y="440"/>
                        </Array>
                    </mxGeometry>
                </mxCell>
                <mxCell id="71" value="" style="edgeStyle=elbowEdgeStyle;elbow=horizontal;endArrow=classic;html=1;curved=0;rounded=0;endSize=8;startSize=8;exitX=0;exitY=0.5;exitDx=0;exitDy=0;entryX=0;entryY=0.5;entryDx=0;entryDy=0;strokeColor=#FF8000;" edge="1" parent="1" source="21" target="36">
                    <mxGeometry width="50" height="50" relative="1" as="geometry">
                        <mxPoint x="420" y="690" as="sourcePoint"/>
                        <mxPoint x="470" y="640" as="targetPoint"/>
                        <Array as="points">
                            <mxPoint x="450" y="500"/>
                        </Array>
                    </mxGeometry>
                </mxCell>
                <mxCell id="79" value="" style="edgeStyle=elbowEdgeStyle;elbow=vertical;endArrow=classic;html=1;curved=0;rounded=0;endSize=8;startSize=8;entryX=0.25;entryY=0;entryDx=0;entryDy=0;exitX=1;exitY=0.5;exitDx=0;exitDy=0;strokeColor=#00FF00;" edge="1" parent="1" source="5" target="9">
                    <mxGeometry width="50" height="50" relative="1" as="geometry">
                        <mxPoint x="200" y="255" as="sourcePoint"/>
                        <mxPoint x="250" y="205" as="targetPoint"/>
                        <Array as="points">
                            <mxPoint x="240" y="247"/>
                        </Array>
                    </mxGeometry>
                </mxCell>
                <mxCell id="80" value="&lt;font style=&quot;font-size: 18px;&quot;&gt;&lt;b&gt;Plan de la fonctionnalité Compte client&lt;/b&gt;&lt;/font&gt;" style="text;html=1;align=center;verticalAlign=middle;resizable=0;points=[];autosize=1;strokeColor=none;fillColor=none;" vertex="1" parent="1">
                    <mxGeometry x="230" y="34" width="349" height="34" as="geometry"/>
                </mxCell>
                <mxCell id="82" value="" style="edgeStyle=segmentEdgeStyle;endArrow=classic;html=1;curved=0;rounded=0;endSize=8;startSize=8;entryX=0.5;entryY=0;entryDx=0;entryDy=0;exitX=1;exitY=0.5;exitDx=0;exitDy=0;strokeColor=#3333FF;" edge="1" parent="1" source="4" target="28">
                    <mxGeometry width="50" height="50" relative="1" as="geometry">
                        <mxPoint x="671" y="143" as="sourcePoint"/>
                        <mxPoint x="721" y="93" as="targetPoint"/>
                    </mxGeometry>
                </mxCell>
            </root>
        </mxGraphModel>
    </diagram>
</mxfile>